<?xml version="1.0" encoding="UTF-8" standalone="no"?>
<!-- Created with Inkscape (http://www.inkscape.org/) -->

<svg
   width="500"
   height="500"
   viewBox="0 0 132.29166 132.29167"
   version="1.1"
   id="svg1"
   inkscape:version="1.4 (e7c3feb1, 2024-10-09)"
   sodipodi:docname="capture.svg"
   inkscape:export-filename="capture.png"
   inkscape:export-xdpi="96"
   inkscape:export-ydpi="96"
   xmlns:inkscape="http://www.inkscape.org/namespaces/inkscape"
   xmlns:sodipodi="http://sodipodi.sourceforge.net/DTD/sodipodi-0.dtd"
   xmlns="http://www.w3.org/2000/svg"
   xmlns:svg="http://www.w3.org/2000/svg">
  <sodipodi:namedview
     id="namedview1"
     pagecolor="#ffffff"
     bordercolor="#000000"
     borderopacity="0.25"
     inkscape:showpageshadow="2"
     inkscape:pageopacity="0.0"
     inkscape:pagecheckerboard="0"
     inkscape:deskcolor="#d1d1d1"
     inkscape:document-units="mm"
     inkscape:zoom="0.64"
     inkscape:cx="368.75"
     inkscape:cy="324.21875"
     inkscape:window-width="1512"
     inkscape:window-height="856"
     inkscape:window-x="0"
     inkscape:window-y="38"
     inkscape:window-maximized="1"
     inkscape:current-layer="layer1"
     showguides="false" />
  <defs
     id="defs1">
    <inkscape:path-effect
       effect="powerclip"
       message=""
       id="path-effect2"
       is_visible="true"
       lpeversion="1"
       inverse="true"
       flatten="false"
       hide_clip="false" />
    <clipPath
       clipPathUnits="userSpaceOnUse"
       id="clipPath2">
      <circle
         style="display:none;fill:#ffffff;stroke-width:0.997127"
         id="circle2"
         cx="66.145836"
         cy="66.145836"
         r="59.53125"
         d="M 125.67709,66.145836 A 59.53125,59.53125 0 0 1 66.145836,125.67709 59.53125,59.53125 0 0 1 6.6145859,66.145836 59.53125,59.53125 0 0 1 66.145836,6.6145859 59.53125,59.53125 0 0 1 125.67709,66.145836 Z" />
      <path
         id="lpe_path-effect2"
         style="fill:#ffffff;stroke-width:0.997127"
         class="powerclip"
         d="M -5,-5 H 137.29167 V 137.29167 H -5 Z M 125.67709,66.145836 A 59.53125,59.53125 0 0 0 66.145836,6.6145859 59.53125,59.53125 0 0 0 6.6145859,66.145836 59.53125,59.53125 0 0 0 66.145836,125.67709 59.53125,59.53125 0 0 0 125.67709,66.145836 Z" />
    </clipPath>
  </defs>
  <g
     inkscape:label="Layer 1"
     inkscape:groupmode="layer"
     id="layer1">
    <path
       style="fill:#ffffff;stroke-width:1.10792"
       id="path1"
       clip-path="url(#clipPath2)"
       inkscape:path-effect="#path-effect2"
       sodipodi:type="arc"
       sodipodi:cx="66.145836"
       sodipodi:cy="66.145836"
       sodipodi:rx="66.145836"
       sodipodi:ry="66.145836"
       d="M 132.29167,66.145836 A 66.145836,66.145836 0 0 1 66.145836,132.29167 66.145836,66.145836 0 0 1 0,66.145836 66.145836,66.145836 0 0 1 66.145836,0 66.145836,66.145836 0 0 1 132.29167,66.145836 Z" />
    <circle
       style="fill:#ffffff;stroke-width:1.5431"
       id="path2"
       cx="66.145836"
       cy="66.145836"
       r="52.916668" />
  </g>
</svg>
